<svg xmlns="http://www.w3.org/2000/svg" viewBox="0 0 600 440"><defs><linearGradient id="bun" x2="0" y2="1"><stop stop-color="#ffd78d"/><stop offset="1" stop-color="#c97c32"/></linearGradient><filter id="s"><feDropShadow dy="12" stdDeviation="9" flood-color="#502e16" flood-opacity=".16"/></filter></defs><rect width="600" height="440" rx="28" fill="#e5eed3"/><ellipse cx="300" cy="343" rx="212" ry="49" fill="#fff" opacity=".72"/><ellipse cx="300" cy="344" rx="161" ry="29" fill="#ddded5" opacity=".5"/><g filter="url(#s)"><path d="M121 228Q130 357 300 363Q470 357 479 228" fill="#f4eee1"/><ellipse cx="300" cy="231" rx="180" ry="108" fill="#2b6c4d"/><ellipse cx="300" cy="235" rx="157" ry="92" fill="#f5e4c0"/><path d="M151 249Q139 161 252 163L281 243Z" fill="#6c9a3f"/><path d="M305 149L402 183L433 239L328 261L296 215Z" fill="#e89066"/><path d="M305 170L406 208M307 194L423 234M328 223L383 241" stroke="#ffcfaa" stroke-width="8"/><path d="M193 282L223 209L259 219L232 296M228 300L262 224L291 236L269 312" stroke="#a9c468" stroke-width="20"/><path d="M319 270Q399 247 411 289L348 318Z" fill="#7eab51"/><circle cx="309" cy="267" r="12" fill="#e3c342"/><circle cx="297" cy="291" r="10" fill="#e3c342"/><circle cx="284" cy="265" r="9" fill="#e3c342"/></g></svg>