<svg xmlns="http://www.w3.org/2000/svg" viewBox="0 0 600 440"><defs><linearGradient id="bun" x2="0" y2="1"><stop stop-color="#ffd78d"/><stop offset="1" stop-color="#c97c32"/></linearGradient><filter id="s"><feDropShadow dy="12" stdDeviation="9" flood-color="#502e16" flood-opacity=".16"/></filter></defs><rect width="600" height="440" rx="28" fill="#fae8c4"/><ellipse cx="300" cy="343" rx="212" ry="49" fill="#fff" opacity=".72"/><ellipse cx="300" cy="344" rx="161" ry="29" fill="#ddded5" opacity=".5"/><g filter="url(#s)"><rect x="190" y="100" width="22" height="158" rx="4" fill="#f8c864" transform="rotate(-15 190 240)"/><rect x="210" y="119" width="22" height="158" rx="4" fill="#dfab4e" transform="rotate(-12 210 240)"/><rect x="230" y="138" width="22" height="158" rx="4" fill="#ffe09d" transform="rotate(-9 230 240)"/><rect x="250" y="100" width="22" height="158" rx="4" fill="#f8c864" transform="rotate(-6 250 240)"/><rect x="270" y="119" width="22" height="158" rx="4" fill="#dfab4e" transform="rotate(-3 270 240)"/><rect x="290" y="138" width="22" height="158" rx="4" fill="#ffe09d" transform="rotate(0 290 240)"/><rect x="310" y="100" width="22" height="158" rx="4" fill="#f8c864" transform="rotate(3 310 240)"/><rect x="330" y="119" width="22" height="158" rx="4" fill="#dfab4e" transform="rotate(6 330 240)"/><rect x="350" y="138" width="22" height="158" rx="4" fill="#ffe09d" transform="rotate(9 350 240)"/><rect x="370" y="100" width="22" height="158" rx="4" fill="#f8c864" transform="rotate(12 370 240)"/><path d="M170 218L428 218L407 337Q300 363 193 337Z" fill="#d77c53"/><path d="M179 219Q300 267 419 219" stroke="#b25c3d" stroke-width="9" fill="none"/></g></svg>